<?xml version="1.0" encoding="UTF-8"?>
<svg width="200" height="24" viewBox="0 0 200 24" xmlns="http://www.w3.org/2000/svg">
  <defs>
    <linearGradient id="sliderTrackGradient" x1="0%" y1="0%" x2="0%" y2="100%">
      <stop offset="0%" style="stop-color:#E5E7EB;stop-opacity:1" />
      <stop offset="100%" style="stop-color:#D1D5DB;stop-opacity:1" />
    </linearGradient>
    <linearGradient id="sliderFillGradient" x1="0%" y1="0%" x2="0%" y2="100%">
      <stop offset="0%" style="stop-color:#4F46E5;stop-opacity:1" />
      <stop offset="100%" style="stop-color:#3730A3;stop-opacity:1" />
    </linearGradient>
    <filter id="sliderShadow" x="-20%" y="-20%" width="140%" height="140%">
      <feDropShadow dx="0" dy="1" stdDeviation="1" flood-color="#000000" flood-opacity="0.1"/>
    </filter>
  </defs>
  
  <!-- Slider Track Background -->
  <rect x="2" y="8" width="196" height="8" rx="4" ry="4" 
        fill="url(#sliderTrackGradient)" 
        stroke="#9CA3AF" 
        stroke-width="1"
        filter="url(#sliderShadow)"/>
  
  <!-- Slider Fill (initially 0%) -->
  <rect x="2" y="8" width="0" height="8" rx="4" ry="4" 
        fill="url(#sliderFillGradient)"/>
  
  <!-- Slider Thumb -->
  <circle cx="10" cy="12" r="8" 
          fill="url(#sliderFillGradient)" 
          stroke="#312E81" 
          stroke-width="1.5"
          filter="url(#sliderShadow)"/>
  
  <!-- Thumb Inner Glow -->
  <circle cx="10" cy="12" r="6" 
          fill="none" 
          stroke="rgba(255,255,255,0.3)" 
          stroke-width="1"/>
  
  <!-- Track Markers -->
  <rect x="20" y="10" width="2" height="4" rx="1" ry="1" 
        fill="rgba(156,163,175,0.5)"/>
  <rect x="40" y="10" width="2" height="4" rx="1" ry="1" 
        fill="rgba(156,163,175,0.5)"/>
  <rect x="60" y="10" width="2" height="4" rx="1" ry="1" 
        fill="rgba(156,163,175,0.5)"/>
  <rect x="80" y="10" width="2" height="4" rx="1" ry="1" 
        fill="rgba(156,163,175,0.5)"/>
  <rect x="100" y="10" width="2" height="4" rx="1" ry="1" 
        fill="rgba(156,163,175,0.5)"/>
  <rect x="120" y="10" width="2" height="4" rx="1" ry="1" 
        fill="rgba(156,163,175,0.5)"/>
  <rect x="140" y="10" width="2" height="4" rx="1" ry="1" 
        fill="rgba(156,163,175,0.5)"/>
  <rect x="160" y="10" width="2" height="4" rx="1" ry="1" 
        fill="rgba(156,163,175,0.5)"/>
  <rect x="180" y="10" width="2" height="4" rx="1" ry="1" 
        fill="rgba(156,163,175,0.5)"/>
</svg>
